<svg width="182" height="194.05" xmlns="http://www.w3.org/2000/svg" xmlns:xlink="http://www.w3.org/1999/xlink" id="svg2" overflow="hidden"><defs id="defs5"><linearGradient id="linearGradient3203"><stop offset="0" stop-color="#FFFF5A"/><stop offset="1" stop-color="#FFFFFF"/></linearGradient><linearGradient id="linearGradient3187"><stop offset="0" stop-color="#46C8C8"/><stop offset="1" stop-color="#FFFFFF"/></linearGradient><radialGradient cx="38.91" cy="43.7434" r="90" fx="38.91" fy="43.7434" gradientUnits="userSpaceOnUse" xlink:href="#linearGradient3187" id="radialGradient3266" gradientTransform="matrix(2.01013 0.00290333 -0.00384908 2.66492 -42.2589 -79.0686)"></radialGradient><radialGradient cx="25.5676" cy="58.7307" r="80" fx="25.5676" fy="58.7307" gradientUnits="userSpaceOnUse" xlink:href="#linearGradient3203" id="radialGradient3268" gradientTransform="matrix(2.39717 -2.40115e-08 4.22653e-08 4.08934 -35.3624 -151.408)"></radialGradient><radialGradient cx="37.4678" cy="8.40229" r="80" fx="37.4678" fy="8.40229" gradientUnits="userSpaceOnUse" xlink:href="#linearGradient3203" id="radialGradient3270" gradientTransform="matrix(1.90348 0.012092 -0.00931459 1.46626 -38.1689 23.8806)"></radialGradient><radialGradient cx="38.91" cy="43.7434" r="90" fx="38.91" fy="43.7434" gradientUnits="userSpaceOnUse" xlink:href="#linearGradient3187" id="radialGradient3272" gradientTransform="matrix(1.87729 -0.0246364 0.00078686 1.49385 -37.4317 156.504)"></radialGradient><radialGradient cx="38.91" cy="43.7434" r="90" fx="38.91" fy="43.7434" gradientUnits="userSpaceOnUse" xlink:href="#linearGradient3187" id="radialGradient3316" gradientTransform="matrix(1.87729 -0.0246364 0.00078686 1.49385 -46.164 147.354)"></radialGradient><radialGradient cx="38.91" cy="43.7434" r="90" fx="38.91" fy="43.7434" gradientUnits="userSpaceOnUse" xlink:href="#linearGradient3187" id="radialGradient3334" gradientTransform="matrix(2.01013 0.00290333 -0.00384908 2.66492 -42.2589 -79.0686)"></radialGradient><radialGradient cx="25.5676" cy="58.7307" r="80" fx="25.5676" fy="58.7307" gradientUnits="userSpaceOnUse" xlink:href="#linearGradient3203" id="radialGradient3336" gradientTransform="matrix(2.39717 -2.40115e-08 4.22653e-08 4.08934 -35.3624 -151.408)"></radialGradient><radialGradient cx="37.4678" cy="8.40229" r="80" fx="37.4678" fy="8.40229" gradientUnits="userSpaceOnUse" xlink:href="#linearGradient3203" id="radialGradient3338" gradientTransform="matrix(1.90348 0.012092 -0.00931459 1.46626 -38.1689 23.8806)"></radialGradient></defs><g id="g3325" transform="translate(-0.138963 0.00107675)"><g id="g3247" transform="translate(-8.73231 -9.15009)"><path d="M26.6714 10.8961 173.071 10.8961C181.963 10.8961 189.121 18.0545 189.121 26.9462L189.121 185.399C189.121 194.291 181.963 201.449 173.071 201.449L26.6714 201.449C17.7796 201.449 10.6213 194.291 10.6213 185.399L10.6213 26.9462C10.6213 18.0545 17.7796 10.8961 26.6714 10.8961Z" id="rect2391" stroke="#000000" stroke-width="1.5" stroke-linecap="round" fill="url(#radialGradient3334)" fill-rule="evenodd"/><path d="M30 24.9643 30 25.0327C30 26.0818 30.3239 26.8892 30.9716 27.4548 31.6193 28.0295 32.5498 28.3169 33.7631 28.3169 34.8304 28.3169 35.6743 28.0523 36.2946 27.5232 36.9149 26.9941 37.2251 26.2825 37.2251 25.3885 37.2251 24.5766 36.9697 23.9426 36.4588 23.4865 35.9753 23.0577 35.1771 22.7065 34.0641 22.4328L32.8873 22.1454C32.2852 21.9904 31.8519 21.7805 31.5873 21.516 31.3228 21.2423 31.1905 20.8728 31.1905 20.4076 31.1905 19.8055 31.3866 19.3403 31.7789 19.0118 32.1803 18.6834 32.755 18.5192 33.5031 18.5192 34.2785 18.5192 34.8806 18.7108 35.3094 19.0939 35.7472 19.4771 35.9707 20.029 35.9799 20.7497L36.9377 20.7497C36.9195 19.7827 36.6139 19.0301 36.0209 18.4918 35.4279 17.9536 34.6023 17.6845 33.5441 17.6845 32.5224 17.6845 31.7105 17.9354 31.1084 18.4371 30.5245 18.9297 30.2326 19.582 30.2326 20.3939 30.2326 21.1693 30.4561 21.7669 30.9031 22.1865 31.3045 22.5514 31.9978 22.8616 32.9831 23.117L33.9273 23.3496C34.803 23.5686 35.4006 23.8149 35.7199 24.0886 36.0939 24.3987 36.2809 24.8685 36.2809 25.498 36.2809 26.1001 36.0574 26.579 35.6104 26.9348 35.1634 27.2997 34.5476 27.4822 33.7631 27.4822 32.8691 27.4822 32.1757 27.2587 31.6831 26.8117 31.1996 26.3738 30.9579 25.758 30.9579 24.9643L30 24.9643ZM38.9082 22.9938C38.9082 24.6177 39.3096 25.9131 40.1124 26.8801 40.9061 27.8379 41.9506 28.3169 43.246 28.3169 44.587 28.3169 45.6589 27.8379 46.4617 26.8801 47.2828 25.9222 47.6933 24.6268 47.6933 22.9938 47.6933 21.3518 47.2828 20.0518 46.4617 19.0939 45.6589 18.1543 44.587 17.6845 43.246 17.6845 41.9415 17.6845 40.8969 18.1543 40.1124 19.0939 39.3096 20.0609 38.9082 21.3609 38.9082 22.9938L38.9082 22.9938ZM39.825 22.9938C39.825 21.6072 40.1489 20.5034 40.7966 19.6823 41.4169 18.8978 42.2334 18.5055 43.246 18.5055 44.3134 18.5055 45.1618 18.8978 45.7912 19.6823 46.448 20.4851 46.7765 21.589 46.7765 22.9938 46.7765 24.3896 46.448 25.4934 45.7912 26.3053 45.1618 27.099 44.3134 27.4958 43.246 27.4958 42.2243 27.4958 41.4032 27.099 40.7829 26.3053 40.1443 25.4843 39.825 24.3805 39.825 22.9938L39.825 22.9938ZM48.7059 28.0295 49.6775 28.0295 50.8269 24.9506 55.37 24.9506 56.492 28.0295 57.4636 28.0295 53.6321 17.9445 52.5374 17.9445 48.7059 28.0295ZM51.1416 24.1159 53.0711 18.9297 55.0415 24.1159 51.1416 24.1159ZM59.2425 28.0295 60.1593 28.0295 60.1593 23.6644 62.3077 23.6644C63.5575 23.6644 64.4971 23.4226 65.1266 22.9391 65.7469 22.4647 66.0571 21.7486 66.0571 20.7907 66.0571 19.842 65.7788 19.1304 65.2224 18.656 64.675 18.1817 63.8494 17.9445 62.7456 17.9445L59.2425 17.9445 59.2425 28.0295ZM60.1593 22.8296 60.1593 18.7792 62.7182 18.7792C63.5301 18.7792 64.1322 18.9389 64.5245 19.2581 64.9167 19.5774 65.1129 20.0792 65.1129 20.7634 65.1129 21.5023 64.8803 22.036 64.415 22.3644 63.9771 22.6746 63.2792 22.8296 62.3214 22.8296L60.1593 22.8296ZM67.5349 22.6107 67.5349 23.3633 74.5137 23.3633 74.5137 22.6107 67.5349 22.6107ZM76.5116 28.0295 83.2851 28.0295 83.2851 27.1948 77.4284 27.1948 77.4284 23.2675 82.6283 23.2675 82.6283 22.4328 77.4284 22.4328 77.4284 18.7792 83.1209 18.7792 83.1209 17.9445 76.5116 17.9445 76.5116 28.0295ZM85.5703 28.0295 86.2408 28.0295 86.2408 19.4908 91.4681 28.0295 92.467 28.0295 92.467 17.9445 91.5502 17.9445 91.5502 26.4285 86.3503 17.9445 85.324 17.9445 85.324 28.0295 85.5703 28.0295ZM97.5027 28.0295 98.5016 28.0295 101.991 17.9445 101.061 17.9445 98.009 26.8527 94.9712 17.9445 93.9996 17.9445 97.5027 28.0295ZM103.92 26.5517 105.166 26.5517 105.166 25.3064 103.92 25.3064 103.92 26.5517ZM103.92 20.6676 105.166 20.6676 105.166 19.4223 103.92 19.4223 103.92 20.6676ZM112.965 28.0295 119.739 28.0295 119.739 27.1948 113.882 27.1948 113.882 23.2675 119.082 23.2675 119.082 22.4328 113.882 22.4328 113.882 18.7792 119.575 18.7792 119.575 17.9445 112.965 17.9445 112.965 28.0295ZM121.6 28.0295 122.435 28.0295 122.435 23.7465C122.435 22.9893 122.635 22.3918 123.037 21.9539 123.438 21.5251 123.976 21.3107 124.652 21.3107 125.363 21.3107 125.847 21.4886 126.102 21.8444 126.339 22.1546 126.458 22.7019 126.458 23.4865L126.458 28.0295 127.293 28.0295 127.293 23.3907C127.293 22.9254 127.279 22.5833 127.251 22.3644 127.206 22.0542 127.124 21.7988 127.005 21.5981 126.804 21.2697 126.517 21.0142 126.143 20.8318 125.76 20.6585 125.317 20.5718 124.816 20.5718 124.287 20.5718 123.821 20.6813 123.42 20.9002 123.019 21.1283 122.686 21.4658 122.421 21.9128L122.421 20.7497 121.6 20.7497 121.6 28.0295ZM131.275 28.0295 132.205 28.0295 134.846 20.7497 133.984 20.7497 131.781 27.0032 129.578 20.7497 128.661 20.7497 131.275 28.0295ZM136.789 23.8696C136.78 23.1216 137.008 22.4921 137.473 21.9812 137.884 21.5342 138.408 21.3107 139.047 21.3107 139.676 21.3107 140.187 21.5342 140.58 21.9812 141.017 22.4921 141.236 23.1216 141.236 23.8696L136.789 23.8696ZM136.789 24.5401 142.112 24.5401 142.112 24.2664C142.112 23.0988 141.839 22.1865 141.291 21.5297 140.744 20.8911 140.005 20.5718 139.074 20.5718 138.089 20.5718 137.318 20.9048 136.762 21.5707 136.196 22.2549 135.913 23.2082 135.913 24.4307 135.913 25.6257 136.192 26.5608 136.748 27.2359 137.305 27.9018 138.066 28.2348 139.033 28.2348 139.836 28.2348 140.507 28.0067 141.045 27.5506 141.592 27.1036 141.912 26.5152 142.003 25.7854L141.168 25.7854C141.086 26.3053 140.853 26.7204 140.47 27.0306 140.096 27.3316 139.64 27.4822 139.102 27.4822 138.408 27.4822 137.852 27.2222 137.432 26.7022 137.004 26.1731 136.789 25.4524 136.789 24.5401L136.789 24.5401ZM144.083 28.0295 144.917 28.0295 144.917 17.9445 144.083 17.9445 144.083 28.0295ZM150.364 20.5718C149.314 20.5718 148.48 20.9686 147.859 21.7623 147.312 22.483 147.038 23.3633 147.038 24.4033 147.038 25.4341 147.312 26.3053 147.859 27.0169 148.48 27.8197 149.314 28.2211 150.364 28.2211 151.413 28.2211 152.247 27.8197 152.868 27.0169 153.424 26.3053 153.702 25.4341 153.702 24.4033 153.702 23.3633 153.424 22.483 152.868 21.7623 152.247 20.9686 151.413 20.5718 150.364 20.5718L150.364 20.5718ZM150.364 21.3107C151.139 21.3107 151.755 21.63 152.211 22.2686 152.631 22.8524 152.84 23.5594 152.84 24.3896 152.84 25.2198 152.631 25.9222 152.211 26.4969 151.755 27.1446 151.139 27.4685 150.364 27.4685 149.579 27.4685 148.963 27.1446 148.516 26.4969 148.106 25.9222 147.9 25.2198 147.9 24.3896 147.9 23.5503 148.106 22.8433 148.516 22.2686 148.972 21.63 149.588 21.3107 150.364 21.3107L150.364 21.3107ZM155.673 30 156.508 30 156.508 26.798C156.79 27.2632 157.146 27.619 157.575 27.8653 158.004 28.1116 158.487 28.2348 159.026 28.2348 160.002 28.2348 160.782 27.8334 161.365 27.0306 161.895 26.3099 162.159 25.4341 162.159 24.4033 162.159 23.3633 161.895 22.483 161.365 21.7623 160.782 20.9686 160.002 20.5718 159.026 20.5718 158.487 20.5718 157.999 20.695 157.561 20.9413 157.151 21.1785 156.8 21.5205 156.508 21.9676L156.508 20.7497 155.673 20.7497 155.673 30ZM158.875 21.3107C159.632 21.3107 160.234 21.63 160.681 22.2686 161.092 22.8433 161.297 23.5503 161.297 24.3896 161.297 25.2198 161.092 25.9268 160.681 26.5106 160.234 27.1583 159.632 27.4822 158.875 27.4822 158.1 27.4822 157.488 27.1583 157.041 26.5106 156.64 25.9268 156.439 25.2198 156.439 24.3896 156.439 23.5503 156.64 22.8433 157.041 22.2686 157.488 21.63 158.1 21.3107 158.875 21.3107L158.875 21.3107ZM164.677 23.8696C164.668 23.1216 164.896 22.4921 165.361 21.9812 165.772 21.5342 166.296 21.3107 166.935 21.3107 167.564 21.3107 168.075 21.5342 168.467 21.9812 168.905 22.4921 169.124 23.1216 169.124 23.8696L164.677 23.8696ZM164.677 24.5401 170 24.5401 170 24.2664C170 23.0988 169.726 22.1865 169.179 21.5297 168.632 20.8911 167.893 20.5718 166.962 20.5718 165.977 20.5718 165.206 20.9048 164.65 21.5707 164.084 22.2549 163.801 23.2082 163.801 24.4307 163.801 25.6257 164.079 26.5608 164.636 27.2359 165.192 27.9018 165.954 28.2348 166.921 28.2348 167.724 28.2348 168.394 28.0067 168.933 27.5506 169.48 27.1036 169.799 26.5152 169.891 25.7854L169.056 25.7854C168.974 26.3053 168.741 26.7204 168.358 27.0306 167.984 27.3316 167.528 27.4822 166.99 27.4822 166.296 27.4822 165.74 27.2222 165.32 26.7022 164.891 26.1731 164.677 25.4524 164.677 24.5401L164.677 24.5401Z" id="text3165" font-family="Dotum" font-weight="400" font-size="14.0123"/><path d="M29.7021 89.5112 169.696 89.5112C174.822 89.5112 178.949 93.638 178.949 98.7641L178.949 178.642C178.949 183.768 174.822 187.895 169.696 187.895L29.7021 187.895C24.576 187.895 20.4492 183.768 20.4492 178.642L20.4492 98.7641C20.4492 93.638 24.576 89.5112 29.7021 89.5112Z" id="rect3171" stroke="#000000" stroke-width="1.5" stroke-linecap="round" fill="url(#radialGradient3336)" fill-rule="evenodd"/><path d="M32.1873 37.4036 166.596 37.4036C173.269 37.4036 178.642 42.7759 178.642 49.4491L178.642 61.7359C178.642 68.4091 173.269 73.7814 166.596 73.7814L32.1873 73.7814C25.5141 73.7814 20.1418 68.4091 20.1418 61.7359L20.1418 49.4491C20.1418 42.7759 25.5141 37.4036 32.1873 37.4036Z" id="rect3173" stroke="#000000" stroke-width="1.5" stroke-linecap="round" fill="url(#radialGradient3338)" fill-rule="evenodd"/><path d="M32.362 55.9621 32.362 56.0305C32.362 57.0796 32.6859 57.887 33.3336 58.4526 33.9813 59.0273 34.9118 59.3147 36.1251 59.3147 37.1925 59.3147 38.0363 59.0501 38.6566 58.521 39.277 57.9919 39.5871 57.2803 39.5872 56.3863 39.5871 55.5744 39.3317 54.9404 38.8209 54.4843 38.3373 54.0555 37.5391 53.7043 36.4262 53.4306L35.2494 53.1432C34.6473 52.9882 34.2139 52.7783 33.9494 52.5138 33.6848 52.2401 33.5525 51.8706 33.5526 51.4054 33.5525 50.8033 33.7487 50.338 34.141 50.0096 34.5424 49.6812 35.1171 49.517 35.8651 49.517 36.6405 49.517 37.2426 49.7086 37.6714 50.0917 38.1093 50.4749 38.3328 51.0268 38.3419 51.7475L39.2998 51.7475C39.2815 50.7805 38.9759 50.0279 38.383 49.4896 37.79 48.9514 36.9644 48.6823 35.9062 48.6823 34.8844 48.6823 34.0725 48.9332 33.4704 49.4349 32.8866 49.9275 32.5947 50.5798 32.5947 51.3917 32.5947 52.1671 32.8182 52.7646 33.2652 53.1843 33.6666 53.5492 34.3599 53.8594 35.3451 54.1148L36.2893 54.3474C37.1651 54.5664 37.7626 54.8127 38.0819 55.0863 38.4559 55.3965 38.643 55.8663 38.643 56.4958 38.643 57.0979 38.4195 57.5768 37.9725 57.9326 37.5254 58.2975 36.9097 58.48 36.1251 58.48 35.2311 58.48 34.5378 58.2565 34.0452 57.8094 33.5617 57.3716 33.3199 56.7558 33.3199 55.9621L32.362 55.9621ZM41.2703 53.9916C41.2703 55.6155 41.6717 56.9109 42.4745 57.8779 43.2681 58.8357 44.3127 59.3147 45.6081 59.3147 46.9491 59.3147 48.021 58.8357 48.8238 57.8779 49.6448 56.92 50.0553 55.6246 50.0553 53.9916 50.0553 52.3496 49.6448 51.0496 48.8238 50.0917 48.021 49.1521 46.9491 48.6823 45.6081 48.6823 44.3035 48.6823 43.259 49.1521 42.4745 50.0917 41.6717 51.0587 41.2703 52.3587 41.2703 53.9916L41.2703 53.9916ZM42.1871 53.9916C42.1871 52.605 42.5109 51.5012 43.1586 50.6801 43.779 49.8956 44.5955 49.5033 45.6081 49.5033 46.6754 49.5033 47.5238 49.8956 48.1533 50.6801 48.8101 51.4829 49.1385 52.5868 49.1385 53.9916 49.1385 55.3874 48.8101 56.4912 48.1533 57.3031 47.5238 58.0968 46.6754 58.4936 45.6081 58.4936 44.5863 58.4936 43.7653 58.0968 43.145 57.3031 42.5064 56.4821 42.1871 55.3783 42.1871 53.9916L42.1871 53.9916ZM51.0679 59.0273 52.0395 59.0273 53.1889 55.9484 57.732 55.9484 58.8541 59.0273 59.8256 59.0273 55.9941 48.9423 54.8994 48.9423 51.0679 59.0273ZM53.5037 55.1137 55.4331 49.9275 57.4036 55.1137 53.5037 55.1137ZM61.6045 59.0273 62.5214 59.0273 62.5214 54.6621 64.6697 54.6621C65.9195 54.6622 66.8592 54.4204 67.4886 53.9369 68.109 53.4625 68.4191 52.7464 68.4191 51.7885 68.4191 50.8398 68.1409 50.1282 67.5844 49.6538 67.037 49.1795 66.2115 48.9423 65.1076 48.9423L61.6045 48.9423 61.6045 59.0273ZM62.5214 53.8274 62.5214 49.777 65.0803 49.777C65.8922 49.777 66.4943 49.9366 66.8865 50.2559 67.2788 50.5752 67.4749 51.077 67.4749 51.7612 67.4749 52.5001 67.2423 53.0338 66.7771 53.3622 66.3392 53.6723 65.6413 53.8274 64.6834 53.8274L62.5214 53.8274ZM69.897 53.6085 69.897 54.3611 76.8758 54.3611 76.8758 53.6085 69.897 53.6085ZM78.8736 59.0273 85.6472 59.0273 85.6472 58.1926 79.7905 58.1926 79.7905 54.2653 84.9903 54.2653 84.9903 53.4306 79.7905 53.4306 79.7905 49.777 85.483 49.777 85.483 48.9423 78.8736 48.9423 78.8736 59.0273ZM87.9324 59.0273 88.6029 59.0273 88.6029 50.4886 93.8301 59.0273 94.8291 59.0273 94.8291 48.9423 93.9122 48.9423 93.9122 57.4263 88.7124 48.9423 87.6861 48.9423 87.6861 59.0273 87.9324 59.0273ZM99.8647 59.0273 100.864 59.0273 104.353 48.9423 103.423 48.9423 100.371 57.8505 97.3332 48.9423 96.3617 48.9423 99.8647 59.0273ZM106.282 57.5494 107.528 57.5494 107.528 56.3042 106.282 56.3042 106.282 57.5494ZM106.282 51.6654 107.528 51.6654 107.528 50.4201 106.282 50.4201 106.282 51.6654ZM115.328 59.0273 116.244 59.0273 116.244 54.1422 121.992 54.1422 121.992 59.0273 122.908 59.0273 122.908 48.9423 121.992 48.9423 121.992 53.3211 116.244 53.3211 116.244 48.9423 115.328 48.9423 115.328 59.0273ZM125.85 54.8674C125.841 54.1194 126.069 53.4899 126.535 52.979 126.945 52.532 127.47 52.3085 128.108 52.3085 128.738 52.3085 129.249 52.532 129.641 52.979 130.079 53.4899 130.298 54.1194 130.298 54.8674L125.85 54.8674ZM125.85 55.5379 131.173 55.5379 131.173 55.2642C131.173 54.0965 130.9 53.1843 130.352 52.5275 129.805 51.8889 129.066 51.5696 128.136 51.5696 127.15 51.5696 126.38 51.9026 125.823 52.5685 125.257 53.2527 124.975 54.206 124.975 55.4284 124.975 56.6235 125.253 57.5586 125.809 58.2336 126.366 58.8996 127.128 59.2326 128.095 59.2326 128.897 59.2326 129.568 59.0045 130.106 58.5484 130.654 58.1014 130.973 57.513 131.064 56.7831L130.229 56.7831C130.147 57.3031 129.915 57.7182 129.531 58.0284 129.157 58.3294 128.701 58.48 128.163 58.48 127.47 58.48 126.913 58.22 126.494 57.7 126.065 57.1709 125.85 56.4502 125.85 55.5379L125.85 55.5379ZM137.906 57.9873 137.906 58.0968C137.906 58.4252 137.993 58.6761 138.166 58.8494 138.339 59.0228 138.599 59.1094 138.946 59.1094 139.019 59.1094 139.096 59.1049 139.179 59.0957 139.297 59.0775 139.42 59.0592 139.548 59.041L139.548 58.4115 139.247 58.4115C139.01 58.4115 138.855 58.3568 138.782 58.2473 138.736 58.1743 138.713 58.0101 138.713 57.7547L138.713 53.7864C138.713 53.0566 138.485 52.5047 138.029 52.1306 137.582 51.7657 136.925 51.5833 136.059 51.5833 135.174 51.5833 134.471 51.7977 133.951 52.2264 133.44 52.6461 133.18 53.2162 133.171 53.9369L134.006 53.9369C134.024 53.3987 134.207 52.9927 134.553 52.719 134.9 52.4545 135.402 52.3222 136.059 52.3222 136.706 52.3222 137.172 52.4499 137.454 52.7053 137.728 52.9425 137.865 53.3439 137.865 53.9095 137.865 54.2471 137.742 54.4843 137.495 54.6211 137.313 54.7306 137.012 54.8036 136.592 54.84L136.209 54.8674C135.68 54.9039 135.288 54.945 135.032 54.9906 134.622 55.0544 134.271 55.1593 133.979 55.3053 133.586 55.4695 133.295 55.7067 133.103 56.0169 132.902 56.327 132.802 56.6965 132.802 57.1252 132.802 57.7547 133.016 58.261 133.445 58.6442 133.883 59.0364 134.471 59.2326 135.21 59.2326 135.721 59.2326 136.2 59.1277 136.647 58.9178 137.094 58.708 137.514 58.3979 137.906 57.9873L137.906 57.9873ZM137.865 55.2095 137.865 56.2358C137.865 56.92 137.628 57.4673 137.153 57.8779 136.688 58.2793 136.077 58.48 135.32 58.48 134.809 58.48 134.403 58.3522 134.102 58.0968 133.81 57.8414 133.664 57.5084 133.664 57.0979 133.664 56.7056 133.801 56.3818 134.074 56.1263 134.376 55.8435 134.8 55.6702 135.347 55.6063L136.195 55.4969C136.624 55.4604 136.93 55.4239 137.112 55.3874 137.413 55.3418 137.664 55.2825 137.865 55.2095L137.865 55.2095ZM147.471 48.9423 146.636 48.9423 146.636 52.9243C146.354 52.5138 145.998 52.1762 145.569 51.9117 145.149 51.6836 144.67 51.5696 144.132 51.5696 143.138 51.5696 142.349 51.9664 141.765 52.7601 141.245 53.4808 140.985 54.3611 140.985 55.4011 140.985 56.4319 141.245 57.3077 141.765 58.0284 142.349 58.8312 143.138 59.2326 144.132 59.2326 144.661 59.2326 145.154 59.0957 145.61 58.8221 146.048 58.5666 146.39 58.22 146.636 57.7821L146.636 59.0273 147.471 59.0273 147.471 48.9423ZM144.269 52.3085C145.035 52.3085 145.647 52.6278 146.103 53.2664 146.513 53.8411 146.718 54.5481 146.718 55.3874 146.718 56.2176 146.513 56.9246 146.103 57.5084 145.647 58.1561 145.035 58.48 144.269 58.48 143.503 58.48 142.896 58.1561 142.449 57.5084 142.048 56.9246 141.847 56.2176 141.847 55.3874 141.847 54.5481 142.048 53.8411 142.449 53.2664 142.896 52.6278 143.503 52.3085 144.269 52.3085L144.269 52.3085ZM150.317 54.8674C150.308 54.1194 150.536 53.4899 151.001 52.979 151.412 52.532 151.937 52.3085 152.575 52.3085 153.205 52.3085 153.715 52.532 154.108 52.979 154.546 53.4899 154.765 54.1194 154.765 54.8674L150.317 54.8674ZM150.317 55.5379 155.64 55.5379 155.64 55.2642C155.64 54.0965 155.367 53.1843 154.819 52.5275 154.272 51.8889 153.533 51.5696 152.602 51.5696 151.617 51.5696 150.846 51.9026 150.29 52.5685 149.724 53.2527 149.442 54.206 149.442 55.4284 149.442 56.6235 149.72 57.5586 150.276 58.2336 150.833 58.8996 151.594 59.2326 152.561 59.2326 153.364 59.2326 154.035 59.0045 154.573 58.5484 155.12 58.1014 155.44 57.513 155.531 56.7831L154.696 56.7831C154.614 57.3031 154.381 57.7182 153.998 58.0284 153.624 58.3294 153.168 58.48 152.63 58.48 151.937 58.48 151.38 58.22 150.96 57.7 150.532 57.1709 150.317 56.4502 150.317 55.5379L150.317 55.5379ZM157.57 59.0273 158.404 59.0273 158.404 54.9906C158.404 54.1513 158.587 53.5127 158.952 53.0748 159.308 52.6461 159.818 52.4317 160.484 52.4317L160.608 52.4317 160.608 51.5696 160.512 51.5696C160.028 51.5696 159.609 51.6836 159.253 51.9117 158.879 52.158 158.591 52.5275 158.391 53.0201L158.391 51.7475 157.57 51.7475 157.57 59.0273Z" id="text3175" font-family="Dotum" font-weight="400" font-size="14.0123"/><path d="M38.0879 107.575 38.0879 107.644C38.0879 108.693 38.4117 109.5 39.0594 110.066 39.7071 110.641 40.6376 110.928 41.851 110.928 42.9183 110.928 43.7621 110.663 44.3825 110.134 45.0028 109.605 45.313 108.894 45.313 108 45.313 107.188 45.0575 106.554 44.5467 106.098 44.0632 105.669 43.265 105.318 42.152 105.044L40.9752 104.757C40.3731 104.602 39.9398 104.392 39.6752 104.127 39.4107 103.853 39.2784 103.484 39.2784 103.019 39.2784 102.417 39.4745 101.951 39.8668 101.623 40.2682 101.295 40.8429 101.13 41.591 101.13 42.3664 101.13 42.9685 101.322 43.3972 101.705 43.8351 102.088 44.0586 102.64 44.0678 103.361L45.0256 103.361C45.0074 102.394 44.7018 101.641 44.1088 101.103 43.5158 100.565 42.6902 100.296 41.632 100.296 40.6103 100.296 39.7984 100.547 39.1963 101.048 38.6124 101.541 38.3205 102.193 38.3205 103.005 38.3205 103.78 38.544 104.378 38.991 104.798 39.3924 105.163 40.0857 105.473 41.071 105.728L42.0152 105.961C42.8909 106.18 43.4885 106.426 43.8078 106.7 44.1818 107.01 44.3688 107.48 44.3688 108.109 44.3688 108.711 44.1453 109.19 43.6983 109.546 43.2513 109.911 42.6355 110.093 41.851 110.093 40.9569 110.093 40.2636 109.87 39.771 109.423 39.2875 108.985 39.0458 108.369 39.0458 107.575L38.0879 107.575ZM46.9961 105.605C46.9961 107.229 47.3975 108.524 48.2003 109.491 48.994 110.449 50.0385 110.928 51.3339 110.928 52.6749 110.928 53.7468 110.449 54.5496 109.491 55.3706 108.533 55.7812 107.238 55.7812 105.605 55.7812 103.963 55.3706 102.663 54.5496 101.705 53.7468 100.765 52.6749 100.296 51.3339 100.296 50.0294 100.296 48.9848 100.765 48.2003 101.705 47.3975 102.672 46.9961 103.972 46.9961 105.605L46.9961 105.605ZM47.9129 105.605C47.9129 104.218 48.2368 103.115 48.8845 102.293 49.5048 101.509 50.3213 101.117 51.3339 101.117 52.4012 101.117 53.2496 101.509 53.8791 102.293 54.5359 103.096 54.8643 104.2 54.8643 105.605 54.8643 107.001 54.5359 108.105 53.8791 108.916 53.2496 109.71 52.4012 110.107 51.3339 110.107 50.3122 110.107 49.4911 109.71 48.8708 108.916 48.2322 108.095 47.9129 106.992 47.9129 105.605L47.9129 105.605ZM56.7938 110.641 57.7653 110.641 58.9148 107.562 63.4578 107.562 64.5799 110.641 65.5515 110.641 61.72 100.556 60.6253 100.556 56.7938 110.641ZM59.2295 106.727 61.1589 101.541 63.1294 106.727 59.2295 106.727ZM67.3304 110.641 68.2472 110.641 68.2472 106.276 70.3956 106.276C71.6454 106.276 72.585 106.034 73.2145 105.55 73.8348 105.076 74.145 104.36 74.145 103.402 74.145 102.453 73.8667 101.742 73.3102 101.267 72.7629 100.793 71.9373 100.556 70.8335 100.556L67.3304 100.556 67.3304 110.641ZM68.2472 105.441 68.2472 101.39 70.8061 101.39C71.618 101.39 72.2201 101.55 72.6124 101.869 73.0046 102.189 73.2008 102.69 73.2008 103.375 73.2008 104.113 72.9681 104.647 72.5029 104.976 72.065 105.286 71.3671 105.441 70.4093 105.441L68.2472 105.441ZM75.6228 105.222 75.6228 105.974 82.6016 105.974 82.6016 105.222 75.6228 105.222ZM84.5995 110.641 91.373 110.641 91.373 109.806 85.5163 109.806 85.5163 105.879 90.7162 105.879 90.7162 105.044 85.5163 105.044 85.5163 101.39 91.2088 101.39 91.2088 100.556 84.5995 100.556 84.5995 110.641ZM93.6582 110.641 94.3287 110.641 94.3287 102.102 99.556 110.641 100.555 110.641 100.555 100.556 99.6381 100.556 99.6381 109.04 94.4382 100.556 93.4119 100.556 93.4119 110.641 93.6582 110.641ZM105.591 110.641 106.59 110.641 110.079 100.556 109.148 100.556 106.097 109.464 103.059 100.556 102.088 100.556 105.591 110.641ZM112.008 109.163 113.254 109.163 113.254 107.918 112.008 107.918 112.008 109.163ZM112.008 103.279 113.254 103.279 113.254 102.034 112.008 102.034 112.008 103.279ZM121.053 110.641 123.927 110.641C124.73 110.641 125.327 110.627 125.72 110.6 126.221 110.563 126.591 110.504 126.828 110.422 127.321 110.221 127.708 109.897 127.991 109.45 128.274 109.012 128.415 108.501 128.415 107.918 128.415 107.233 128.237 106.663 127.882 106.207 127.535 105.742 127.061 105.445 126.459 105.318 126.924 105.126 127.289 104.839 127.553 104.456 127.818 104.072 127.95 103.635 127.95 103.142 127.95 102.677 127.841 102.252 127.622 101.869 127.403 101.477 127.106 101.176 126.732 100.966 126.459 100.802 126.13 100.688 125.747 100.624 125.419 100.578 124.994 100.556 124.474 100.556L121.053 100.556 121.053 110.641ZM124.31 101.39C125.259 101.39 125.934 101.509 126.335 101.746 126.782 102.011 127.006 102.494 127.006 103.197 127.006 103.89 126.773 104.373 126.308 104.647 125.907 104.884 125.213 105.003 124.228 105.003L121.97 105.003 121.97 101.39 124.31 101.39ZM121.97 109.806 121.97 105.824 124.858 105.824C125.715 105.824 126.363 105.993 126.801 106.33 127.239 106.677 127.457 107.192 127.457 107.877 127.457 108.606 127.239 109.117 126.801 109.409 126.408 109.674 125.738 109.806 124.789 109.806L121.97 109.806ZM133.492 103.183C132.443 103.183 131.608 103.58 130.988 104.373 130.441 105.094 130.167 105.974 130.167 107.014 130.167 108.045 130.441 108.917 130.988 109.628 131.608 110.431 132.443 110.832 133.492 110.832 134.541 110.832 135.376 110.431 135.996 109.628 136.553 108.917 136.831 108.045 136.831 107.014 136.831 105.974 136.553 105.094 135.996 104.373 135.376 103.58 134.541 103.183 133.492 103.183L133.492 103.183ZM133.492 103.922C134.267 103.922 134.883 104.241 135.339 104.88 135.759 105.464 135.969 106.171 135.969 107.001 135.969 107.831 135.759 108.533 135.339 109.108 134.883 109.756 134.267 110.08 133.492 110.08 132.708 110.08 132.092 109.756 131.645 109.108 131.234 108.533 131.029 107.831 131.029 107.001 131.029 106.161 131.234 105.454 131.645 104.88 132.101 104.241 132.717 103.922 133.492 103.922L133.492 103.922ZM144.987 100.556 144.152 100.556 144.152 104.538C143.869 104.127 143.513 103.79 143.084 103.525 142.665 103.297 142.186 103.183 141.648 103.183 140.653 103.183 139.864 103.58 139.28 104.373 138.76 105.094 138.5 105.974 138.5 107.014 138.5 108.045 138.76 108.921 139.28 109.642 139.864 110.445 140.653 110.846 141.648 110.846 142.177 110.846 142.669 110.709 143.126 110.435 143.563 110.18 143.905 109.833 144.152 109.395L144.152 110.641 144.987 110.641 144.987 100.556ZM141.785 103.922C142.551 103.922 143.162 104.241 143.618 104.88 144.029 105.454 144.234 106.161 144.234 107.001 144.234 107.831 144.029 108.538 143.618 109.122 143.162 109.769 142.551 110.093 141.785 110.093 141.018 110.093 140.412 109.769 139.965 109.122 139.563 108.538 139.362 107.831 139.362 107.001 139.362 106.161 139.563 105.454 139.965 104.88 140.412 104.241 141.018 103.922 141.785 103.922L141.785 103.922ZM149.475 111.188 152.608 103.361 151.705 103.361 149.475 109.012 147.244 103.361 146.341 103.361 149.023 110.093 148.763 110.764C148.599 111.147 148.439 111.412 148.284 111.558 148.093 111.758 147.833 111.859 147.504 111.859L147.231 111.817 146.916 111.776 146.916 112.543C147.025 112.561 147.126 112.575 147.217 112.584 147.317 112.602 147.418 112.611 147.518 112.611 148.002 112.611 148.398 112.493 148.709 112.255 149 112.036 149.256 111.681 149.475 111.188L149.475 111.188Z" id="text3183" font-family="Dotum" font-weight="400" font-size="14.0123"/></g></g></svg>